<?xml version="1.0" encoding="utf-8"?>
<!-- Generator: Adobe Illustrator 19.2.1, SVG Export Plug-In . SVG Version: 6.00 Build 0)  -->
<svg version="1.1" id="Khronos" xmlns="http://www.w3.org/2000/svg" xmlns:xlink="http://www.w3.org/1999/xlink" x="0px" y="0px"
	 width="2100px" height="500px" viewBox="0 0 2100 500" enable-background="new 0 0 2100 500" xml:space="preserve">
<g id="TM_2_">
	<path fill="#221F1F" d="M1987.224,124.701h-7.348v19.112h-6.418v-19.112h-7.348v-5.52h21.113V124.701L1987.224,124.701z"/>
	<path fill="#221F1F" d="M1990.089,119.182h9.451l4.242,16.421h0.07l4.242-16.421h9.455v24.632h-6.039v-18.698h-0.068l-5.176,18.698
		h-4.896l-5.178-18.698h-0.068v18.698h-6.035V119.182L1990.089,119.182z"/>
</g>
<g id="KHR_NOS">
	<path fill="#221F1F" d="M137.148,326.281H97.533V123.808h39.615V326.281z M137.703,225.74l61.291-101.932h44.16l-65.049,100.543
		l65.049,101.931h-44.16L137.703,225.74z"/>
	<path fill="#221F1F" d="M378.588,244.119v82.162h-39.616V123.808h39.616v82.163h65.29v-82.163h39.616v202.473h-39.616v-82.162
		H378.588z"/>
	<path fill="#221F1F" d="M639.649,326.281h-39.614V123.808h48.133c15.312,0,26.701,0.529,34.174,1.599
		c7.475,1.063,13.853,2.809,19.149,5.222c11.509,5.377,20.277,12.892,26.313,22.537c6.03,9.654,9.051,20.964,9.051,33.956
		c0,15.68-4.312,28.965-12.92,39.867c-8.609,10.901-20.323,17.828-35.131,20.797l50.554,78.496h-47.204l-52.504-93.852V326.281z
		 M639.649,222.477h8.8c16.102,0,28.324-2.899,36.656-8.712c8.333-5.808,12.5-14.288,12.5-25.437
		c0-10.784-3.496-18.73-10.476-23.839c-6.982-5.113-17.877-7.668-32.675-7.668h-14.805V222.477z"/>
	<path fill="#221F1F" d="M1298.672,326.281h-38.885V123.808h37.591l83.822,129.323V123.808h38.881v202.473h-36.802l-84.607-133.222
		V326.281z"/>
	<path fill="#221F1F" d="M1528.052,224.626c0-11.124,1.48-21.626,4.452-31.5c2.97-9.87,7.377-19.12,13.223-27.738
		c10.019-14.558,22.591-25.795,37.718-33.72c15.119-7.929,31.635-11.895,49.545-11.895c13.452,0,26.42,2.598,38.903,7.79
		c12.475,5.19,23.636,12.655,33.472,22.387c10.109,10.104,17.809,21.46,23.098,34.069c5.29,12.612,7.938,25.875,7.938,39.776
		c0,14.464-2.484,28.045-7.451,40.747c-4.961,12.699-12.27,23.965-21.92,33.791c-9.741,10.289-21.087,18.203-34.029,23.715
		c-12.945,5.51-26.469,8.268-40.568,8.268c-15.122,0-29.043-2.693-41.756-8.062c-12.71-5.375-23.979-13.35-33.812-23.92
		c-9.468-10.006-16.634-21.246-21.505-33.717C1530.489,252.145,1528.052,238.817,1528.052,224.626z M1569.497,223.238
		c0,8.713,1.442,16.816,4.318,24.318c2.878,7.504,7.149,14.356,12.81,20.561c6.221,6.764,13.275,11.975,21.162,15.637
		c7.887,3.65,16.06,5.482,24.507,5.482c17.728,0,32.6-6.299,44.623-18.896c12.021-12.599,18.035-28.294,18.035-47.102
		c0-17.227-6.058-31.929-18.171-44.113c-12.113-12.181-26.661-18.273-43.65-18.273c-17.732,0-32.77,6.066-45.109,18.203
		C1575.672,191.194,1569.497,205.918,1569.497,223.238z"/>
	<path fill="#221F1F" d="M1832.011,263.56l36.318-0.14v2.902c0,8.476,2.196,15.267,6.609,20.379
		c4.408,5.113,10.292,7.67,17.645,7.67c7.896,0,14.143-2.379,18.74-7.141c4.592-4.766,6.89-11.219,6.89-19.36
		c0-13.042-9.312-22.382-27.939-28.021c-2.401-0.738-4.294-1.342-5.677-1.804c-15.73-4.92-27.384-11.899-34.977-20.942
		c-7.584-9.047-11.371-20.472-11.371-34.294c0-19.023,5.26-34.275,15.783-45.781c10.521-11.501,24.541-17.254,42.073-17.254
		c16.403,0,29.476,5.119,39.213,15.346c9.728,10.23,15.161,24.556,16.273,42.975h-35.942v-1.651c0-6.42-1.957-11.602-5.853-15.541
		c-3.897-3.945-9.002-5.915-15.314-5.915c-6.496,0-11.62,2.029-15.382,6.083c-3.76,4.06-5.639,9.582-5.639,16.589
		c0,2.951,0.389,5.554,1.18,7.81c0.792,2.261,2.021,4.314,3.69,6.149c3.798,4.176,11.966,8.026,24.479,11.552
		c5.56,1.483,9.828,2.733,12.799,3.754c13.907,4.733,24.172,11.503,30.803,20.312c6.625,8.816,9.944,20.084,9.944,33.803
		c0,20.871-5.791,37.641-17.368,50.295c-11.576,12.66-26.951,18.983-46.125,18.983c-18.064,0-32.646-6.102-43.76-18.315
		C1837.985,299.787,1832.288,283.641,1832.011,263.56z"/>
</g>
<g id="GROUP">
	<path fill="#221F1F" d="M1442.298,367.152l-5.416,5.967c-2.643-2.281-5.293-3.955-7.955-5.016c-2.656-1.059-5.51-1.588-8.553-1.588
		c-6.188,0-11.369,2.15-15.535,6.461c-4.166,4.301-6.245,9.607-6.245,15.914c0,6.305,2.084,11.613,6.247,15.918
		c4.17,4.303,9.346,6.459,15.54,6.459c2.749,0,5.339-0.436,7.755-1.299c2.428-0.861,4.678-2.17,6.77-3.924v-13.396h-12.013v-7.883
		h20.632v26.02c-3.776,2.947-7.577,5.141-11.393,6.582c-3.814,1.434-7.732,2.154-11.751,2.154c-8.771,0-16.063-2.912-21.873-8.729
		c-5.813-5.818-8.72-13.113-8.72-21.898c0-3.859,0.694-7.586,2.08-11.188c1.388-3.59,3.362-6.797,5.926-9.6
		c2.905-3.166,6.282-5.59,10.126-7.252c3.845-1.672,7.997-2.5,12.461-2.5c4.282,0,8.372,0.781,12.27,2.344
		C1436.548,362.262,1439.767,364.42,1442.298,367.152z"/>
	<path fill="#221F1F" d="M1526.79,359.914h11.141c3.145,0,5.716,0.178,7.712,0.531c1.994,0.355,3.761,0.939,5.298,1.728
		c2.484,1.32,4.463,3.293,5.93,5.924c1.467,2.631,2.2,5.557,2.2,8.787c0,3.834-1.243,7.141-3.726,9.914
		c-2.484,2.773-5.775,4.506-9.871,5.193l17.723,24.025l-8.204,3.508l-19.488-28.285v26.719l-8.714,0.738V359.914z M1535.504,367.619
		v18.432h3.137c3.736,0,6.622-0.83,8.659-2.502c2.04-1.662,3.061-3.988,3.061-6.977c0-2.961-0.977-5.188-2.918-6.697
		c-1.949-1.51-4.813-2.256-8.605-2.256H1535.504z"/>
	<path fill="#221F1F" d="M1670.083,358.355c3.798,0,7.414,0.617,10.834,1.859c3.424,1.246,6.472,3.029,9.131,5.357
		c3.434,3.07,6.066,6.613,7.883,10.627c1.829,4.023,2.74,8.258,2.74,12.695c0,3.838-0.695,7.559-2.088,11.166
		c-1.385,3.613-3.369,6.846-5.956,9.701c-2.882,3.17-6.238,5.59-10.087,7.264c-3.841,1.66-7.998,2.496-12.457,2.496
		c-3.834,0-7.449-0.627-10.853-1.871c-3.408-1.24-6.419-3.025-9.031-5.352c-3.464-3.098-6.11-6.648-7.946-10.672
		c-1.832-4.02-2.756-8.258-2.756-12.733c0-4.438,0.929-8.678,2.774-12.709c1.85-4.037,4.492-7.568,7.929-10.613
		c2.612-2.328,5.623-4.111,9.031-5.357C1662.634,358.973,1666.249,358.355,1670.083,358.355z M1670.083,366.516
		c-6.19,0-11.369,2.15-15.533,6.461c-4.164,4.301-6.242,9.607-6.242,15.914c0,6.332,2.073,11.641,6.221,15.932
		c4.16,4.295,9.339,6.445,15.555,6.445c6.162,0,11.332-2.16,15.515-6.48c4.175-4.322,6.263-9.621,6.263-15.897
		c0-6.307-2.083-11.613-6.248-15.914C1681.455,368.666,1676.267,366.516,1670.083,366.516z"/>
	<path fill="#221F1F" d="M1791.238,359.088v32.99c0,7.006,0.901,11.928,2.696,14.758c1.801,2.826,4.818,4.246,9.079,4.246
		c4.271,0,7.371-1.338,9.291-4.029c1.912-2.682,2.866-7.125,2.866-13.348v-33.791l8.438-0.826v36.561
		c0,4.73-0.35,8.357-1.047,10.875c-0.697,2.523-1.866,4.736-3.509,6.635c-1.64,1.908-3.871,3.428-6.689,4.562
		c-2.831,1.135-5.788,1.709-8.877,1.709c-7.025,0-12.275-1.973-15.747-5.902c-3.474-3.939-5.211-9.898-5.211-17.879v-35.734
		L1791.238,359.088z"/>
	<path fill="#221F1F" d="M1908.476,359.914h15.373c6.638,0,11.69,1.49,15.173,4.475c3.478,2.982,5.215,7.357,5.215,13.107
		c0,5.439-1.993,9.738-5.989,12.897c-3.995,3.152-9.479,4.734-16.462,4.734c-0.926,0-2.379-0.055-4.359-0.162
		c-0.109,0-0.193-0.012-0.24-0.041v23.035l-8.71,0.738V359.914z M1917.187,367.619v19.408c0.764,0.133,1.579,0.229,2.438,0.293
		c0.866,0.066,1.83,0.105,2.924,0.105c4.227,0,7.432-0.846,9.615-2.518c2.183-1.678,3.267-4.143,3.267-7.385
		c0-3.414-1.004-5.912-3.029-7.512c-2.023-1.6-5.206-2.393-9.547-2.393H1917.187z"/>
</g>
<path id="Top_Swoosh" fill="#CC3333" d="M985.537,313.139c-69.526-2.465-164.377-34.19-184.056-80.02
	c-17.024-41.676-0.124-90.245,80.128-124.654c47.599-19.834,119.632-25.438,175.088-20.346
	c78.741,7.213,153.726,47.942,153.827,48.05v57.064l-0.056,3.838c0,0-24.413-22.123-54.913-39.923
	c-28.711-16.772-55.048-28.613-107.245-33.438c-12.206-1.128-33.022-3.86-66.707,0.825c-13.61,1.897-32.791,3.335-75.958,22.284
	c-14.041,6.659-26.885,13.814-36.87,22.091c-5.23,4.343-12.279,10.45-17.312,15.602c-12.31,15.442-18.846,27.015-15.719,48.016
	c3.604,15.792,10.635,25.724,30.874,40.823c8.781,6.553,9.808,6.52,13.703,8.531c36.295,18.76,65.302,25.676,106.744,30.867"/>
<path id="Bottom_Swoosh" fill="#CC3333" d="M989.273,135.065c69.674-0.275,168.496,27.628,194.211,72.571
	c22.52,40.904,12.119,89.999-63.35,127.477c-44.843,21.654-115.943,30.082-171.936,27.185
	c-79.488-4.105-159.69-41.775-159.81-41.895l-7.58-56.9l-0.454-3.838c0,0,27.287,21.107,60.071,37.656
	c30.867,15.613,58.71,26.381,111.41,29.141c12.322,0.654,33.447,2.549,66.419-3.447c13.325-2.418,32.268-4.613,72.806-25.213
	c13.114-7.189,24.977-14.832,33.84-23.491c4.633-4.536,10.854-10.896,15.186-16.231c10.225-15.882,15.212-27.69,9.303-48.509
	c-5.699-15.608-14.025-25.237-36.222-39.506c-9.624-6.19-10.642-6.109-14.795-7.975c-38.69-17.266-68.541-23.03-110.564-26.579"/>
</svg>
