{
  "accessors": [
    {
      "bufferView": 0,
      "byteOffset": 0,
      "componentType": 5123,
      "count": 6,
      "type": "SCALAR",
      "max": [3],
      "min": [0]
    },
    {
      "bufferView": 1,
      "byteOffset": 0,
      "componentType": 5126,
      "count": 4,
      "type": "VEC3",
      "max": [1.0, 1.0, 0.0],
      "min": [0.0, 0.0, 0.0]
    },
    {
      "bufferView": 1,
      "byteOffset": 48,
      "componentType": 5126,
      "count": 4,
      "type": "VEC3",
      "max": [0.0, 0.0, 1.0],
      "min": [0.0, 0.0, 1.0]
    },
    {
      "bufferView": 1,
      "byteOffset": 96,
      "componentType": 5126,
      "count": 4,
      "type": "VEC2",
      "max": [1.0, 1.0],
      "min": [0.0, 0.0]
    }
  ],
  "asset": {
    "generator": "JglTF from https://github.com/javagl/JglTF",
    "version": "2.0"
  },
  "buffers": [
    {
      "uri": "data:application/gltf-buffer;base64,",
      "byteLength": 156
    }
  ],
  "bufferViews": [
    {
      "buffer": 0,
      "byteOffset": 0,
      "byteLength": 12,
      "target": 34963
    },
    {
      "buffer": 0,
      "byteOffset": 12,
      "byteLength": 144,
      "byteStride": 12,
      "target": 34962
    }
  ],
  "images": [
    {
      "uri": "data:image/png;base64,",
      "mimeType": "image/png"
    }
  ],
  "meshes": [
    {
      "primitives": [
        {
          "attributes": {
            "POSITION": 1,
            "NORMAL": 2,
            "TEXCOORD_0": 3
          },
          "indices": 0,
          "mode": 4,

          "extensions": {
            "NGA_gpm_local": {
              "ppeTextures": [
                {
                  "traits": {
                    "source": "SIGZ",
                    "min": 0.0,
                    "max": 16.0
                  },
                  "index": 0,
                  "noData": 255,
                  "offset": "Not a number",
                  "scale": 0.06274509803921569,
                  "texCoord": 0
                }
              ]
            }
          }
        }
      ]
    }
  ],
  "nodes": [
    {
      "mesh": 0
    }
  ],
  "samplers": [
    {
      "magFilter": 9728,
      "minFilter": 9728,
      "wrapS": 33071,
      "wrapT": 33071
    }
  ],
  "scene": 0,
  "scenes": [
    {
      "nodes": [0]
    }
  ],
  "textures": [
    {
      "sampler": 0,
      "source": 0
    }
  ],
  "extensionsUsed": ["NGA_gpm_local"]
}
