{
  "accessors": [
    {
      "bufferView": 1,
      "byteOffset": 0,
      "componentType": 5123,
      "count": 18,
      "type": "SCALAR",
      "min": [
        0
      ],
      "max": [
        15
      ]
    },
    {
      "bufferView": 0,
      "byteOffset": 0,
      "componentType": 5126,
      "count": 16,
      "min": [
        -1,
        2,
        -1
      ],
      "max": [
        1,
        2.979520082473755,
        1
      ],
      "type": "VEC3"
    },
    {
      "bufferView": 0,
      "byteOffset": 192,
      "componentType": 5126,
      "count": 16,
      "type": "VEC3",
      "min": [
        -0.6997694373130798,
        -1,
        -0.6997694373130798
      ],
      "max": [
        0.6997694373130798,
        0.7143687605857849,
        0.6997694373130798
      ]
    }
  ],
  "asset": {
    "generator": "OBJ2GLTF",
    "version": "2.0"
  },
  "buffers": [
    {
      "byteLength": 420,
      "uri": "data:application/octet-stream;base64,"
    }
  ],
  "bufferViews": [
    {
      "buffer": 0,
      "byteLength": 384,
      "byteOffset": 0,
      "target": 34962,
      "byteStride": 12
    },
    {
      "buffer": 0,
      "byteLength": 36,
      "byteOffset": 384,
      "target": 34963
    }
  ],
  "materials": [
    {
      "pbrMetallicRoughness": {
        "baseColorFactor": [
          0.64,
          0.204491,
          0.219181,
          1
        ],
        "metallicFactor": 0,
        "roughnessFactor": 1
      },
      "emissiveFactor": [
        0,
        0,
        0
      ],
      "alphaMode": "OPAQUE",
      "doubleSided": false
    }
  ],
  "meshes": [
    {
      "primitives": [
        {
          "attributes": {
            "POSITION": 1,
            "NORMAL": 2
          },
          "indices": 0,
          "material": 0,
          "mode": 4
        }
      ]
    }
  ],
  "nodes": [
    {
      "mesh": 0
    }
  ],
  "scene": 0,
  "scenes": [
    {
      "nodes": [
        0
      ]
    }
  ]
}
