{
  "asset": {
    "version": "2.0"
  },
  "extras": {
    "info": {
      "note": "Path shape with incompatible primitive mode (TRIANGLES instead of LINES/LINE_LOOP/LINE_STRIP)"
    }
  },
  "extensionsUsed": [
    "MAXAR_nonvisual_geometry"
  ],
  "accessors": [
    {
      "bufferView": 0,
      "byteOffset": 0,
      "componentType": 5126,
      "count": 5,
      "max": [
        0.0,
        5.0,
        0.0
      ],
      "min": [
        0.0,
        0.0,
        0.0
      ],
      "normalized": false,
      "type": "VEC3"
    }
  ],
  "bufferViews": [
    {
      "buffer": 0,
      "byteLength": 60,
      "byteOffset": 0,
      "target": 34962
    }
  ],
  "buffers": [
    {
      "byteLength": 60,
      "uri": "data:application/octet-stream;base64,"
    }
  ],
  "meshes": [
    {
      "primitives": [
        {
          "attributes": {
            "POSITION": 0
          },
          "extensions": {
            "MAXAR_nonvisual_geometry": {
              "shape": "path",
              "type": "ladder"
            }
          },
          "mode": 4
        }
      ]
    }
  ],
  "nodes": [
    {
      "mesh": 0
    }
  ],
  "scene": 0,
  "scenes": [
    {
      "nodes": [
        0
      ]
    }
  ]
}