{
  "asset": {
    "version": "2.0"
  },
  "extras": {
    "info": {
      "note": "Complex example with node extension and multiple primitive extensions"
    }
  },
  "extensionsUsed": [
    "MAXAR_nonvisual_geometry"
  ],
  "accessors": [
    {
      "bufferView": 0,
      "byteOffset": 0,
      "componentType": 5126,
      "count": 184,
      "max": [
        3.001398801803589,
        1.6538207530975342,
        2.018735885620117
      ],
      "min": [
        -1.0170875787734985,
        0.0,
        -3.4930524826049805
      ],
      "normalized": false,
      "type": "VEC3"
    },
    {
      "bufferView": 1,
      "byteOffset": 0,
      "componentType": 5126,
      "count": 184,
      "normalized": false,
      "type": "VEC3"
    },
    {
      "bufferView": 2,
      "byteOffset": 0,
      "componentType": 5123,
      "count": 306,
      "normalized": false,
      "type": "SCALAR"
    },
    {
      "bufferView": 3,
      "byteOffset": 0,
      "componentType": 5126,
      "count": 4,
      "max": [
        3.012540578842163,
        0.0,
        -2.0416343212127686
      ],
      "min": [
        1.012540578842163,
        0.0,
        -3.4089105129241943
      ],
      "normalized": false,
      "type": "VEC3"
    },
    {
      "bufferView": 4,
      "byteOffset": 0,
      "componentType": 5123,
      "count": 6,
      "normalized": false,
      "type": "SCALAR"
    },
    {
      "bufferView": 5,
      "byteOffset": 0,
      "componentType": 5126,
      "count": 34,
      "max": [
        1.0345865488052368,
        1.6568093299865723,
        2.018935441970825
      ],
      "min": [
        -1.0179169178009033,
        0.00039082765579223633,
        -3.5035672187805176
      ],
      "normalized": false,
      "type": "VEC3"
    },
    {
      "bufferView": 6,
      "byteOffset": 0,
      "componentType": 5123,
      "count": 60,
      "normalized": false,
      "type": "SCALAR"
    },
    {
      "bufferView": 7,
      "byteOffset": 0,
      "componentType": 5126,
      "count": 1,
      "max": [
        1.25,
        0.5,
        0.0
      ],
      "min": [
        1.25,
        0.5,
        0.0
      ],
      "normalized": false,
      "type": "VEC3"
    },
    {
      "bufferView": 8,
      "byteOffset": 0,
      "componentType": 5126,
      "count": 3,
      "max": [
        0.0,
        1.649999976158142,
        2.049999952316284
      ],
      "min": [
        0.0,
        0.0,
        1.5499999523162842
      ],
      "normalized": false,
      "type": "VEC3"
    }
  ],
  "bufferViews": [
    {
      "buffer": 0,
      "byteLength": 2208,
      "byteOffset": 0,
      "target": 34962
    },
    {
      "buffer": 0,
      "byteLength": 2208,
      "byteOffset": 2208,
      "target": 34962
    },
    {
      "buffer": 0,
      "byteLength": 612,
      "byteOffset": 4416,
      "target": 34963
    },
    {
      "buffer": 0,
      "byteLength": 48,
      "byteOffset": 5028,
      "target": 34962
    },
    {
      "buffer": 0,
      "byteLength": 12,
      "byteOffset": 5124,
      "target": 34963
    },
    {
      "buffer": 0,
      "byteLength": 408,
      "byteOffset": 5136,
      "target": 34962
    },
    {
      "buffer": 0,
      "byteLength": 120,
      "byteOffset": 5952,
      "target": 34963
    },
    {
      "buffer": 0,
      "byteLength": 12,
      "byteOffset": 6072,
      "target": 34962
    },
    {
      "buffer": 0,
      "byteLength": 36,
      "byteOffset": 6084,
      "target": 34962
    }
  ],
  "buffers": [
    {
      "byteLength": 6120,
      "uri": "data:application/octet-stream;base64,"
    }
  ],
  "meshes": [
    {
      "name": "Visual Building mesh",
      "primitives": [
        {
          "attributes": {
            "NORMAL": 1,
            "POSITION": 0
          },
          "indices": 2,
          "mode": 4
        }
      ]
    },
    {
      "name": "Nonvisual Building Mesh",
      "primitives": [
        {
          "attributes": {
            "POSITION": 3
          },
          "extensions": {
            "MAXAR_nonvisual_geometry": {
              "shape": "surface",
              "type": "roadway"
            }
          },
          "indices": 4,
          "mode": 4
        },
        {
          "attributes": {
            "POSITION": 5
          },
          "extensions": {
            "MAXAR_nonvisual_geometry": {
              "shape": "volume",
              "type": "collision"
            }
          },
          "indices": 6,
          "mode": 4
        },
        {
          "attributes": {
            "POSITION": 7
          },
          "extensions": {
            "MAXAR_nonvisual_geometry": {
              "shape": "points",
              "type": "trigger"
            }
          },
          "mode": 0
        },
        {
          "attributes": {
            "POSITION": 8
          },
          "extensions": {
            "MAXAR_nonvisual_geometry": {
              "shape": "path",
              "type": "ladder"
            }
          },
          "mode": 3
        }
      ]
    }
  ],
  "nodes": [
    {
      "extensions": {
        "MAXAR_nonvisual_geometry": {
          "mesh": 1
        }
      },
      "mesh": 0,
      "name": "Visual Building"
    }
  ],
  "scene": 0,
  "scenes": [
    {
      "nodes": [
        0
      ]
    }
  ]
}