{
  "asset": {
    "version": "2.0"
  },
  "extras": {
    "info": {
      "note": "Valid node extension referencing existing mesh"
    }
  },
  "extensionsUsed": [
    "MAXAR_nonvisual_geometry"
  ],
  "accessors": [
    {
      "bufferView": 0,
      "byteOffset": 0,
      "componentType": 5126,
      "count": 240,
      "max": [
        0.9510578513145447,
        1.0,
        0.9999999403953552
      ],
      "min": [
        -0.9510578513145447,
        -1.0,
        -0.9999999403953552
      ],
      "normalized": false,
      "type": "VEC3"
    },
    {
      "bufferView": 1,
      "byteOffset": 0,
      "componentType": 5126,
      "count": 240,
      "normalized": false,
      "type": "VEC3"
    },
    {
      "bufferView": 2,
      "byteOffset": 0,
      "componentType": 5123,
      "count": 240,
      "normalized": false,
      "type": "SCALAR"
    },
    {
      "bufferView": 3,
      "byteOffset": 0,
      "componentType": 5126,
      "count": 24,
      "max": [
        1.0,
        1.0,
        1.0
      ],
      "min": [
        -1.0,
        -1.0,
        -1.0
      ],
      "normalized": false,
      "type": "VEC3"
    },
    {
      "bufferView": 4,
      "byteOffset": 0,
      "componentType": 5123,
      "count": 36,
      "normalized": false,
      "type": "SCALAR"
    }
  ],
  "bufferViews": [
    {
      "buffer": 0,
      "byteLength": 2880,
      "byteOffset": 0,
      "target": 34962
    },
    {
      "buffer": 0,
      "byteLength": 2880,
      "byteOffset": 2880,
      "target": 34962
    },
    {
      "buffer": 0,
      "byteLength": 480,
      "byteOffset": 5760,
      "target": 34963
    },
    {
      "buffer": 0,
      "byteLength": 288,
      "byteOffset": 6240,
      "target": 34962
    },
    {
      "buffer": 0,
      "byteLength": 72,
      "byteOffset": 6816,
      "target": 34963
    }
  ],
  "buffers": [
    {
      "byteLength": 6888,
      "uri": "data:application/octet-stream;base64,"
    }
  ],
  "meshes": [
    {
      "name": "Visual Mesh",
      "primitives": [
        {
          "attributes": {
            "NORMAL": 1,
            "POSITION": 0
          },
          "indices": 2,
          "mode": 4
        }
      ]
    },
    {
      "name": "Nonvisual Mesh",
      "primitives": [
        {
          "attributes": {
            "POSITION": 3
          },
          "extensions": {
            "MAXAR_nonvisual_geometry": {
              "shape": "surface",
              "type": "collision"
            }
          },
          "indices": 4,
          "mode": 4
        }
      ]
    }
  ],
  "nodes": [
    {
      "extensions": {
        "MAXAR_nonvisual_geometry": {
          "mesh": 1
        }
      },
      "mesh": 0,
      "name": "Icosphere"
    }
  ],
  "scene": 0,
  "scenes": [
    {
      "nodes": [
        0
      ]
    }
  ]
}